<svg width="30" height="30" viewBox="0 0 30 30" fill="none" xmlns="http://www.w3.org/2000/svg">
<path fill-rule="evenodd" clip-rule="evenodd" d="M15 30C23.2843 30 30 23.2843 30 15C30 6.71573 23.2843 0 15 0C6.71573 0 0 6.71573 0 15C0 23.2843 6.71573 30 15 30ZM12.25 21.8749C12.6148 21.8749 12.7815 21.7126 12.983 21.5164L13 21.4999L14.7993 19.7503L18.5445 22.5173C19.2343 22.8979 19.7322 22.7009 19.904 21.8769L22.3647 10.2815C22.6166 9.27147 21.9796 8.81337 21.3197 9.11297L6.87098 14.6843C5.88472 15.0799 5.89047 15.6302 6.6912 15.8753L10.3991 17.0326L18.9832 11.617C19.3884 11.3713 19.7604 11.5034 19.4551 11.7743L12.4995 18.0512L12.505 18.0552L12.25 21.8749Z" fill="white"/>
</svg>
